<svg xmlns="http://www.w3.org/2000/svg" version="1.1" xmlns:xlink="http://www.w3.org/1999/xlink" xmlns:svgjs="http://svgjs.dev/svgjs" width="100%" height="100%" viewBox="0 0 1000 600"><rect width="1000" height="600" x="0" y="0" fill="transparent"/><g><rect width="333.3333333333333" height="333.3333333333333" rx="13.333333333333334" ry="13.333333333333334" y="111.70673722019156" fill="transparent" transform="matrix(1.3968897658606676,0,0,1.3968897658606676,0,-88.85696970656285)" x="89.48451232910156"/><path d="M233.15834474162864 261.554104480147L233.15834474162864 261.554104480147Q229.51602152604795 271.44385625755154 224.64350967474127 281.86427764252426Q219.79511916923315 292.2846990274969 214.58490847674682 301.33020370195237L214.58490847674682 301.33020370195237Q214.2230882897686 301.667902543132 213.45120522421507 302.9704552162536Q212.67932215866153 304.2730078893752 212.14865255109348 304.2730078893752L212.14865255109348 304.2730078893752Q211.97980313050365 303.9353090481955 212.14865255109348 302.3674215712899Q212.31750197168333 300.7995340943843 212.67932215866153 300.2929858326148L212.67932215866153 300.2929858326148Q213.18587042043106 298.02557932755127 214.2230882897686 294.8174403363444Q215.2844275049047 291.60930134513757 216.3940094116379 288.20819158754233Q217.52771266416966 284.83120317574566 218.6614159167014 281.6954282219344Q219.79511916923315 278.5837746139217 220.66348761798088 276.3163681088582L220.66348761798088 276.3163681088582Q221.00118645916055 275.2791502395207 222.2313750948865 271.8056764445298Q223.4374423848139 268.3322026495389 225.00532986171947 263.55617618142645Q226.57321733862508 258.78014971331396 228.21346885292633 253.30460421704362Q229.8537203672276 247.82905872077322 231.1562730403492 242.71533341148108Q232.45882571347076 237.57748675639039 233.25483012482283 233.33212989584598Q234.02671319037637 229.08677303530155 233.85786376978655 226.81936653023806L233.85786376978655 226.81936653023806L233.85786376978655 225.61329924031065Q233.85786376978655 225.25147905333245 234.02671319037637 225.08262963274262L234.02671319037637 225.08262963274262Q234.38853337735458 225.08262963274262 234.72623221853428 225.61329924031065Q235.06393105971392 226.11984750208018 235.06393105971392 226.28869692267L235.06393105971392 226.28869692267Q236.63181853661953 229.59332129707104 236.99363872359777 234.2004983445937Q237.3313375647774 238.80767539211632 236.89715334040358 243.75255128081864Q236.4629691160297 248.69742716952095 235.42575124669216 253.40108960023775Q234.38853337735458 258.08063068515605 233.15834474162864 261.554104480147ZM226.21139715164688 302.3674215712899L226.21139715164688 302.3674215712899Q224.64350967474127 306.87811323561834 222.66555931926035 311.3888048999468Q220.66348761798088 315.9236179100738 218.5649305335072 320.33782419120803Q216.4904947948321 324.7761518181409 214.48842309355263 328.75617387490126Q212.48635139227315 332.76031727746016 210.7496144947777 336.06494165186126L210.7496144947777 336.06494165186126Q210.2430662330082 336.2337910724511 209.80888200863433 336.2337910724511Q209.3746977842605 336.2337910724511 209.01287759728226 336.2337910724511L209.01287759728226 336.2337910724511Q208.50632933551276 336.2337910724511 208.77166413929677 336.1373056892569Q209.01287759728226 336.06494165186126 209.01287759728226 335.3654226237034L209.01287759728226 335.3654226237034Q212.48635139227315 321.30267802314995 217.52771266416966 307.8429670675603Q222.56907393606616 294.3832561119706 228.30995423612055 280.8270597731867L228.30995423612055 280.8270597731867Q231.95227745170126 272.14337528570945 235.16041644290812 263.1943559944482Q238.368555434115 254.26945804898554 240.27414175220028 243.84903666401283L240.27414175220028 243.84903666401283Q240.27414175220028 242.9806682152651 240.6359619391785 242.9806682152651L240.6359619391785 242.9806682152651Q240.80481135976834 242.9806682152651 241.14251020094798 244.35558492578235L241.14251020094798 244.35558492578235Q242.37269883667392 249.39694619767886 240.9012967429625 257.3087476196025Q239.40577330345255 265.19642769572766 236.72830391981373 273.6147773794209Q234.02671319037637 282.05724840891264 230.98742361975934 289.7760790644479Q227.9481340491423 297.49490971998324 226.21139715164688 302.3674215712899ZM201.89708058671064 350.99605470116234L201.89708058671064 350.99605470116234Q201.89708058671064 351.5267243087304 202.0659300073005 352.03327257049995Q202.25890077368888 352.563942178068 201.89708058671064 352.20212199108977L201.89708058671064 352.20212199108977Q201.19756155855276 352.20212199108977 201.19756155855276 351.6955737293203L201.19756155855276 351.6955737293203Q197.72408776356187 345.44814516749636 196.68686989422432 338.4047121943204Q195.64965202488673 331.3612792211444 196.25268566985045 323.9801474067888Q196.85571931481417 316.59901559243315 198.78542697869796 309.14551974068183Q200.69101329678324 301.667902543132 203.29611864302643 294.5521055325604L203.29611864302643 294.5521055325604Q206.93844185860715 284.4693829887674 211.11143468175592 274.84496601514684Q215.2844275049047 265.19642769572766 219.09560014107527 255.90970956328675Q222.9067727772458 246.62299143084584 225.777212927273 237.9393069433686Q228.64765307730022 229.2556224558914 229.68487094663777 220.90963680959385L229.68487094663777 220.90963680959385Q229.68487094663777 220.57193796841415 229.78135632983197 220.21011778143594Q229.8537203672276 219.8724189402563 230.2155405542058 219.8724189402563L230.2155405542058 219.8724189402563Q230.5532393953855 219.70356951966644 230.5532393953855 220.30660316463013Q230.5532393953855 220.90963680959385 230.9150595823637 221.07848623018367L230.9150595823637 221.07848623018367Q231.95227745170126 230.29284032522895 229.8537203672276 239.74840787825968Q227.7792846285525 249.22809677708898 224.04047602977758 259.045484517098Q220.30166743100264 268.8387509113084 215.7909757666742 278.7526240345116Q211.28028410234577 288.64237581191617 207.63796088676503 298.7250983557092L207.63796088676503 298.7250983557092Q205.37055438170154 304.9725269175331 203.56145344681045 311.750625086925Q201.7282311661208 318.52872325631694 200.7633773341789 325.37918546310453Q199.82264484803554 332.22964766989213 199.99149426862536 338.8388964186942Q200.1603436892152 345.44814516749636 201.89708058671064 350.99605470116234ZM205.9012239892696 338.6700469981044L205.9012239892696 338.6700469981044Q205.73237456867975 342.1435207930953 206.1665587930536 345.35165978430217Q206.60074301742748 348.559798775509 207.107291279197 352.03327257049995L207.107291279197 352.03327257049995Q207.107291279197 352.20212199108977 207.107291279197 352.9016410192476Q207.107291279197 353.60116004740553 206.7695924380173 353.2634612062258L206.7695924380173 353.2634612062258Q205.9012239892696 352.9016410192476 205.73237456867975 352.563942178068L205.73237456867975 352.563942178068Q205.53940380229136 352.39509275747815 205.53940380229136 352.03327257049995L205.53940380229136 352.03327257049995Q203.63381748420608 349.25931780366693 202.86193441865257 346.5577270742296Q202.0659300073005 343.8802576905908 202.25890077368888 338.13937739053637L202.25890077368888 338.13937739053637Q202.25890077368888 336.7644606800191 202.76544903545837 333.9663845673876Q203.29611864302643 331.1924298005546 203.89915228799012 328.5149604169158Q204.5021859329538 325.8133696874784 205.2981903443059 323.90778336939314Q206.07007340985942 322.00219705130786 206.7695924380173 322.1710464718977L206.7695924380173 322.1710464718977Q206.93844185860715 322.1710464718977 207.03492724180134 323.11177895804104Q207.107291279197 324.07663278998297 207.03492724180134 325.2827000799104Q206.93844185860715 326.5128887156363 206.84195647541296 327.646591968168Q206.7695924380173 328.75617387490126 206.7695924380173 329.2868434824693L206.7695924380173 329.2868434824693Q206.4077722510391 332.4226184362805 206.1665587930536 334.59353955814987Q205.9012239892696 336.7644606800191 205.9012239892696 338.6700469981044ZM278.31350407651024 244.71740511276056L278.31350407651024 244.71740511276056Q275.3706998890874 254.94485573134483 271.63189129031247 265.72709730329575Q267.89308269153753 276.4852175294481 263.91306063477714 286.03727046567303L263.91306063477714 286.03727046567303Q263.72008986838875 286.56794007324106 262.9482068028352 287.9428567837583Q262.1763237372817 289.3418948400741 261.64565412971365 289.17304541948425L261.64565412971365 289.17304541948425Q261.307955288534 289.17304541948425 261.2114699053398 287.5086725593844Q261.1149845221456 285.8684210450832 261.307955288534 285.0000525963355L261.307955288534 285.0000525963355Q261.64565412971365 282.732646091272 262.34517315787156 279.45214306266945Q263.04469218602947 276.1475186882684 263.81657525158295 272.67404489327754Q264.5884583171365 269.2005710982866 265.3844627284886 265.8959467238856Q266.1563457940421 262.5913223494845 267.02471424278986 260.15506642383116L267.02471424278986 260.15506642383116Q267.38653442976806 259.1178485544936 268.25490287851574 255.64437475950274Q269.1232713272635 252.17090096451187 270.160489196601 247.32251045900375Q271.19770706593863 242.44999860769707 272.3314103184704 236.90208907403104Q273.4651135710021 231.3300581945665 274.23699663655566 226.11984750208018Q275.0088797021092 220.90963680959385 275.3706998890874 216.56779456585522Q275.70839873026705 212.22595232211663 275.2018504684976 209.98266716285167L275.2018504684976 209.98266716285167Q274.6711808609295 208.2459302653562 275.2018504684976 208.2459302653562L275.2018504684976 208.2459302653562Q275.5395493096772 208.2459302653562 275.80488411346124 208.68011448973007Q276.07021891724526 209.11429871410394 276.40791775842496 209.4519975552836L276.40791775842496 209.4519975552836Q278.14465465592036 212.58777250909483 279.1095084878623 217.09846417342328Q280.05024097400565 221.6091558377517 280.2190903945955 226.48166768905838Q280.41206116098385 231.3300581945665 279.8813915534158 236.2025700458732Q279.3507219458478 241.0509605513813 278.31350407651024 244.71740511276056ZM271.36655648652845 204.57948570397696L271.36655648652845 204.57948570397696Q273.63396299159194 213.45614095784256 272.5002597390602 223.17704331465734Q271.36655648652845 232.89794567147212 268.59260171969544 242.9806682152651Q265.8186469528624 253.03926941325955 262.34517315787156 263.3873267608366Q258.8716993628807 273.7112627626151 256.4354434372273 284.13168414758775L256.4354434372273 284.13168414758775Q254.8675559603217 290.74093289638984 253.92682347417835 297.76024452376726Q252.96196964223643 304.80367749694324 252.96196964223643 311.65413970373083Q252.96196964223643 318.52872325631694 254.0956728947682 324.8485158555365Q255.22937614729994 331.1924298005546 258.0033309141329 336.2337910724511L258.0033309141329 336.2337910724511Q258.3410297553126 336.93331010060894 258.268665717917 337.27100894178864Q258.1721803347228 337.6328291287669 257.13496246538523 336.2337910724511L257.13496246538523 336.2337910724511Q252.62427080105675 331.02358037996476 250.45334967918745 324.4143316311626Q248.28242855731816 317.8292042281591 247.92060837033995 310.5204364511991Q247.58290952916025 303.23579002003765 248.6201273984978 295.42047398130813Q249.65734526783538 287.6051579425786 251.56293158592067 280.1275407450288L251.56293158592067 280.1275407450288Q254.16803693216383 269.70711936005614 257.40029726916924 259.6485181620617Q260.6084362603761 249.56579561826868 263.4788764104033 240.01374268204376Q266.32519521463195 230.46168974581877 268.25490287851574 221.5126704545575Q270.160489196601 212.58777250909483 270.160489196601 204.24178686279728L270.160489196601 204.24178686279728Q270.160489196601 203.37341841404955 270.3293386171909 203.37341841404955L270.3293386171909 203.37341841404955Q271.02885764534875 203.37341841404955 271.36655648652845 204.57948570397696ZM302.9896408284246 336.2337910724511L302.9896408284246 336.2337910724511Q296.5492415002124 333.29098688502825 292.73806886404185 327.0194369774058Q288.9027748820727 320.7720084155819 288.034406433325 312.61899353567276L288.034406433325 312.61899353567276Q287.1660379845773 304.6348280763534 288.034406433325 299.3281320006729Q288.9027748820727 294.0214359249924 290.13296351779866 288.81122523250605L290.13296351779866 288.81122523250605Q290.3018129383885 288.1358275501467 290.8324825459565 286.47145469004687Q291.3390308077261 284.83120317574566 291.60436561151005 283.0944662782502Q291.8697004152941 281.35772938075473 291.60436561151005 280.05517670763317Q291.3390308077261 278.7526240345116 290.13296351779866 278.39080384753333L290.13296351779866 278.39080384753333Q287.69670759214534 277.88425558576387 284.5609326383341 280.56172496940263Q281.44927903032146 283.26331569884 278.57883888029426 287.26745910139897Q275.70839873026705 291.24748115815936 273.3686281878079 295.5169593645023Q271.02885764534875 299.76231622504673 270.3293386171909 302.19857215070004L270.3293386171909 302.19857215070004Q268.76145114028526 307.2399334225966 267.02471424278986 311.750625086925Q265.2879773452944 316.26131675125345 263.91306063477714 320.7720084155819L263.91306063477714 320.7720084155819Q263.3823910272091 322.6775947336672 263.04469218602947 322.5087453130774L263.04469218602947 322.5087453130774Q262.68287199905126 322.5087453130774 262.61050796165557 321.8092262849195Q262.5140225784614 321.13382860256013 262.5140225784614 320.2654601538124L262.5140225784614 320.2654601538124Q262.5140225784614 313.31851256383067 263.55124044779893 306.2750795906547Q264.5884583171365 299.2316466174787 266.42168059782614 292.2846990274969Q268.25490287851574 285.3377514375151 270.4981880377807 278.39080384753333Q272.7655945428442 271.44385625755154 274.8400302815193 264.32805924698L274.8400302815193 264.32805924698Q277.61398504835233 255.47552533891292 280.1467263571999 246.26117124386764Q282.65534632024884 237.07093849462092 283.52371476899657 226.48166768905838L283.52371476899657 226.48166768905838Q283.52371476899657 225.61329924031065 283.52371476899657 225.51681385711646Q283.52371476899657 225.4203284739223 283.6925641895864 225.4203284739223L283.6925641895864 225.4203284739223Q284.2232337971544 225.4203284739223 284.5609326383341 226.81936653023806L284.5609326383341 226.81936653023806Q285.42930108708185 229.08677303530155 285.3569370496862 233.16328047525616Q285.26045166649203 237.23978791521074 284.6574180215283 242.11229976651737Q284.0543843765646 246.9606902720255 282.92068112403285 252.002051543922Q281.7869778715011 257.0434128158185 280.58091058157373 261.0234348725789L280.58091058157373 261.0234348725789Q283.8855349559748 257.549961077588 288.3962266203032 255.64437475950274Q292.9069182846317 253.73878844141746 299.15434684645555 254.6071568901652L299.15434684645555 254.6071568901652Q306.27014385702716 255.64437475950274 310.1054378389963 259.7208821994573Q313.91661047516686 263.82151098521047 315.3156485314826 269.53826993946626Q316.6905652419998 275.2791502395207 316.0875315970361 281.7919136051286Q315.48449795207245 288.3046769707365 313.91661047516686 294.3832561119706L313.91661047516686 294.3832561119706Q312.5416937646496 299.0627971968889 311.31150512892367 302.63275637507394Q310.1054378389963 306.1785942074605 308.87524920327036 309.14551974068183Q307.669181913343 312.08832392810467 306.80081346459525 314.69342927434786Q305.9324450158475 317.29853462059106 305.4017754082795 320.2654601538124L305.4017754082795 320.2654601538124Q305.0640765670998 322.1710464718977 304.7263777259201 322.1710464718977L304.7263777259201 322.1710464718977Q304.3645575389419 322.1710464718977 304.09922273515787 321.47152744373983Q303.8580092771724 320.7720084155819 303.66503851078403 320.072489387424L303.66503851078403 320.072489387424Q302.6278206414465 316.26131675125345 303.59267447338834 310.7134072175875Q304.5334069595317 305.14137633812294 306.10129443643734 298.9904331594932Q307.669181913343 292.815368635065 308.97173458646455 286.47145469004687Q310.2742872595861 280.1275407450288 310.0089524558021 274.74848063195265Q309.7436176520181 269.36942051887644 307.1385123057749 265.29291307892186Q304.5334069595317 261.2164056389673 298.2859783977078 259.6485181620617L298.2859783977078 259.6485181620617Q295.6808730514647 258.9489991339038 292.64158348084766 259.2143339376878Q289.6022939102306 259.4796687414718 286.9248245265918 260.58925064820505Q284.2232337971544 261.7229539007368 282.1487980584793 263.82151098521047Q280.05024097400565 265.8959467238856 279.3507219458478 268.6699014907186L279.3507219458478 268.6699014907186Q282.65534632024884 265.19642769572766 287.86555701273517 262.95314253646274Q293.0757677052215 260.68573603139924 297.9482795565282 262.2536235083048L297.9482795565282 262.2536235083048Q302.4589712208566 263.6285402188221 304.3645575389419 267.29498478020133Q306.27014385702716 270.9373079957821 306.6319640440054 273.7112627626151L306.6319640440054 273.7112627626151Q307.3314830721633 279.7898419038491 305.8359596326533 284.7347177925514Q304.3645575389419 289.6795936812537 302.4589712208566 294.21440669138076L302.4589712208566 294.21440669138076Q302.12127237967695 294.7209549531502 301.42175335151904 295.85465820568203Q300.7222343233612 296.9883614582138 300.3845354821815 296.8195120376239L300.3845354821815 296.8195120376239Q300.0227152952033 296.8195120376239 300.0227152952033 295.42047398130813Q300.0227152952033 294.0214359249924 300.1915647157931 293.346038242633L300.1915647157931 293.346038242633Q300.7222343233612 291.60930134513757 301.05993316454084 287.8704927463627Q301.42175335151904 284.13168414758775 301.32526796832485 280.1275407450288Q301.2529039309292 276.1475186882684 300.2880500989873 272.67404489327754Q299.32319626704543 269.2005710982866 297.24876052837027 267.9703824625607L297.24876052837027 267.9703824625607Q294.81250460271696 266.5954657520435 291.3390308077261 267.19849939700714Q287.86555701273517 267.80153304197086 283.8855349559748 271.44385625755154L283.8855349559748 271.44385625755154Q280.41206116098385 274.5796312113628 277.97580523533054 278.65613865131735Q275.5395493096772 282.732646091272 273.80281241218177 289.3418948400741L273.80281241218177 289.3418948400741Q274.8400302815193 287.4363085219888 277.10743678658287 283.9628347269979Q279.3507219458478 280.489360932007 282.221162095875 277.3535859781958Q285.09160224590215 274.2419323701831 288.29974123710906 272.40871008949347Q291.5078802283159 270.57548780880387 294.47480576153725 271.97452586511963L294.47480576153725 271.97452586511963Q296.38039207962254 273.0117437344572 296.98342572458625 275.5444850433047Q297.58645936954997 278.0531050063537 297.34524591156446 281.1888799601649Q297.07991110778045 284.30053356817757 296.38039207962254 287.26745910139897Q295.6808730514647 290.2102632888218 295.17432478969516 291.9470001863172L295.17432478969516 291.9470001863172Q293.2446171258114 297.1572108788036 292.56921944345197 303.33227540323185Q291.8697004152941 309.48321858186154 292.64158348084766 315.3929483025058Q293.4375878921997 321.30267802314995 296.0426932384429 326.5128887156363Q298.64779858468603 331.72309940812266 303.66503851078403 335.3654226237034L303.66503851078403 335.3654226237034Q305.2329259876896 336.2337910724511 304.29219350154625 336.2337910724511Q303.3273396696043 336.2337910724511 302.9896408284246 336.2337910724511ZM307.5003324927531 334.8347530161353L307.5003324927531 334.8347530161353Q305.0640765670998 333.4598363056181 302.8931554452305 331.8919488287125Q300.7222343233612 330.32406135180685 298.64779858468603 325.8133696874784L298.64779858468603 325.8133696874784Q297.77943013593836 324.07663278998297 297.34524591156446 321.13382860256013Q296.9110616871906 318.16690306933873 296.81457630399643 315.4894336856999Q296.71809092080224 312.7878429562626 297.07991110778045 310.9546206755729Q297.41760994896015 309.14551974068183 297.9482795565282 309.3143691612717L297.9482795565282 309.3143691612717Q298.2859783977078 309.3143691612717 298.64779858468603 310.0862522268252Q298.98549742586573 310.8822566381773 299.15434684645555 311.91947450751485Q299.32319626704543 312.9566923768524 299.51616703343376 313.9215462087943Q299.68501645402364 314.8622786949377 299.68501645402364 315.22409888191595L299.68501645402364 315.22409888191595Q300.3845354821815 319.03527151808646 300.891083743951 320.8684937987761Q301.42175335151904 322.6775947336672 302.2901218002668 324.7761518181409L302.2901218002668 324.7761518181409Q303.66503851078403 327.5501065849739 305.0640765670998 329.8175130900374Q306.46311462341555 332.0607982493023 308.53755036209066 333.9663845673876L308.53755036209066 333.9663845673876Q309.4059188108384 334.66590359554544 308.97173458646455 335.0277237825237Q308.53755036209066 335.3654226237034 307.5003324927531 334.8347530161353ZM263.55124044779893 336.2337910724511L263.55124044779893 336.2337910724511Q263.72008986838875 336.2337910724511 263.2859056440149 336.4026404930409Q262.8517214196411 336.5714899136307 261.64565412971365 336.2337910724511L261.64565412971365 336.2337910724511Q260.2466160733979 335.53427204429323 258.77521397968644 333.62868572620795Q257.30381188597505 331.72309940812266 256.4354434372273 326.1510685286581L256.4354434372273 326.1510685286581Q256.0977445960476 323.90778336939314 256.0977445960476 320.6996443781863Q256.0977445960476 317.4673840411809 256.3389580540331 314.62106523695223Q256.6042928578172 311.750625086925 257.13496246538523 309.65206800245136Q257.6415107271547 307.57763226377625 258.3410297553126 307.7464816843661L258.3410297553126 307.7464816843661Q258.5098791759024 307.7464816843661 258.7028499422908 308.7836995537036Q258.8716993628807 309.84503876883974 259.0405487834705 311.1475914419613Q259.20939820406034 312.4501441150829 259.20939820406034 313.7526967882045Q259.20939820406034 315.05524946132607 259.20939820406034 315.5617977230956L259.20939820406034 315.5617977230956Q259.37824762465016 319.39709170506467 259.64358242843423 321.20619263995576Q259.9089172322182 323.0394149206454 260.4395868397863 326.1510685286581L260.4395868397863 326.1510685286581Q260.9461351015558 329.4556929030592 261.64565412971365 332.1572836324965Q262.34517315787156 334.8347530161353 263.55124044779893 336.2337910724511Z " fill="#333333" transform="matrix(1.3968897658606676,0,0,1.3968897658606676,0,-88.85696970656285)"/><path d="M543.2785420377713 261.554104480147L543.2785420377713 261.554104480147Q539.6362188221906 271.44385625755154 534.7637069708838 281.86427764252426Q529.9153164653758 292.2846990274969 524.7051057728894 301.33020370195237L524.7051057728894 301.33020370195237Q524.3432855859112 301.667902543132 523.5714025203577 302.9704552162536Q522.7995194548041 304.2730078893752 522.2688498472361 304.2730078893752L522.2688498472361 304.2730078893752Q522.1000004266463 303.9353090481955 522.2688498472361 302.3674215712899Q522.4376992678259 300.7995340943843 522.7995194548041 300.2929858326148L522.7995194548041 300.2929858326148Q523.3060677165736 298.02557932755127 524.3432855859112 294.8174403363444Q525.4046248010472 291.60930134513757 526.5142067077804 288.20819158754233Q527.6479099603123 284.83120317574566 528.781613212844 281.6954282219344Q529.9153164653758 278.5837746139217 530.7836849141235 276.3163681088582L530.7836849141235 276.3163681088582Q531.1213837553032 275.2791502395207 532.3515723910291 271.8056764445298Q533.5576396809565 268.3322026495389 535.125527157862 263.55617618142645Q536.6934146347677 258.78014971331396 538.3336661490689 253.30460421704362Q539.9739176633702 247.82905872077322 541.2764703364918 242.71533341148108Q542.5790230096134 237.57748675639039 543.3750274209655 233.33212989584598Q544.146910486519 229.08677303530155 543.9780610659292 226.81936653023806L543.9780610659292 226.81936653023806L543.9780610659292 225.61329924031065Q543.9780610659292 225.25147905333245 544.146910486519 225.08262963274262L544.146910486519 225.08262963274262Q544.5087306734972 225.08262963274262 544.8464295146769 225.61329924031065Q545.1841283558565 226.11984750208018 545.1841283558565 226.28869692267L545.1841283558565 226.28869692267Q546.7520158327621 229.59332129707104 547.1138360197403 234.2004983445937Q547.45153486092 238.80767539211632 547.0173506365461 243.75255128081864Q546.5831664121723 248.69742716952095 545.5459485428348 253.40108960023775Q544.5087306734972 258.08063068515605 543.2785420377713 261.554104480147ZM536.3315944477895 302.3674215712899L536.3315944477895 302.3674215712899Q534.7637069708838 306.87811323561834 532.785756615403 311.3888048999468Q530.7836849141235 315.9236179100738 528.6851278296498 320.33782419120803Q526.6106920909747 324.7761518181409 524.6086203896953 328.75617387490126Q522.6065486884157 332.76031727746016 520.8698117909203 336.06494165186126L520.8698117909203 336.06494165186126Q520.3632635291508 336.2337910724511 519.9290793047769 336.2337910724511Q519.494895080403 336.2337910724511 519.1330748934249 336.2337910724511L519.1330748934249 336.2337910724511Q518.6265266316553 336.2337910724511 518.8918614354394 336.1373056892569Q519.1330748934249 336.06494165186126 519.1330748934249 335.3654226237034L519.1330748934249 335.3654226237034Q522.6065486884157 321.30267802314995 527.6479099603123 307.8429670675603Q532.6892712322087 294.3832561119706 538.4301515322632 280.8270597731867L538.4301515322632 280.8270597731867Q542.0724747478439 272.14337528570945 545.2806137390508 263.1943559944482Q548.4887527302576 254.26945804898554 550.3943390483429 243.84903666401283L550.3943390483429 243.84903666401283Q550.3943390483429 242.9806682152651 550.7561592353211 242.9806682152651L550.7561592353211 242.9806682152651Q550.9250086559109 242.9806682152651 551.2627074970906 244.35558492578235L551.2627074970906 244.35558492578235Q552.4928961328166 249.39694619767886 551.0214940391052 257.3087476196025Q549.5259705995952 265.19642769572766 546.8485012159563 273.6147773794209Q544.146910486519 282.05724840891264 541.107620915902 289.7760790644479Q538.068331345285 297.49490971998324 536.3315944477895 302.3674215712899ZM512.0172778828533 350.99605470116234L512.0172778828533 350.99605470116234Q512.0172778828533 351.5267243087304 512.1861273034431 352.03327257049995Q512.3790980698315 352.563942178068 512.0172778828533 352.20212199108977L512.0172778828533 352.20212199108977Q511.31775885469534 352.20212199108977 511.31775885469534 351.6955737293203L511.31775885469534 351.6955737293203Q507.8442850597045 345.44814516749636 506.8070671903669 338.4047121943204Q505.76984932102937 331.3612792211444 506.372882965993 323.9801474067888Q506.97591661095674 316.59901559243315 508.9056242748406 309.14551974068183Q510.8112105929259 301.667902543132 513.416315939169 294.5521055325604L513.416315939169 294.5521055325604Q517.0586391547497 284.4693829887674 521.2316319778986 274.84496601514684Q525.4046248010472 265.19642769572766 529.2157974372178 255.90970956328675Q533.0269700733884 246.62299143084584 535.8974102234156 237.9393069433686Q538.7678503734428 229.2556224558914 539.8050682427804 220.90963680959385L539.8050682427804 220.90963680959385Q539.8050682427804 220.57193796841415 539.9015536259745 220.21011778143594Q539.9739176633702 219.8724189402563 540.3357378503484 219.8724189402563L540.3357378503484 219.8724189402563Q540.6734366915281 219.70356951966644 540.6734366915281 220.30660316463013Q540.6734366915281 220.90963680959385 541.0352568785063 221.07848623018367L541.0352568785063 221.07848623018367Q542.0724747478439 230.29284032522895 539.9739176633702 239.74840787825968Q537.8994819246951 249.22809677708898 534.1606733259202 259.045484517098Q530.4218647271452 268.8387509113084 525.9111730628168 278.7526240345116Q521.4004813984884 288.64237581191617 517.7581581829077 298.7250983557092L517.7581581829077 298.7250983557092Q515.4907516778442 304.9725269175331 513.681650742953 311.750625086925Q511.8484284622634 318.52872325631694 510.8835746303215 325.37918546310453Q509.94284214417814 332.22964766989213 510.11169156476797 338.8388964186942Q510.2805409853578 345.44814516749636 512.0172778828533 350.99605470116234ZM516.0214212854122 338.6700469981044L516.0214212854122 338.6700469981044Q515.8525718648224 342.1435207930953 516.2867560891962 345.35165978430217Q516.72094031357 348.559798775509 517.2274885753395 352.03327257049995L517.2274885753395 352.03327257049995Q517.2274885753395 352.20212199108977 517.2274885753395 352.9016410192476Q517.2274885753395 353.60116004740553 516.8897897341599 353.2634612062258L516.8897897341599 353.2634612062258Q516.0214212854122 352.9016410192476 515.8525718648224 352.563942178068L515.8525718648224 352.563942178068Q515.659601098434 352.39509275747815 515.659601098434 352.03327257049995L515.659601098434 352.03327257049995Q513.7540147803487 349.25931780366693 512.9821317147952 346.5577270742296Q512.1861273034431 343.8802576905908 512.3790980698315 338.13937739053637L512.3790980698315 338.13937739053637Q512.3790980698315 336.7644606800191 512.885646331601 333.9663845673876Q513.416315939169 331.1924298005546 514.0193495841327 328.5149604169158Q514.6223832290964 325.8133696874784 515.4183876404485 323.90778336939314Q516.190270706002 322.00219705130786 516.8897897341599 322.1710464718977L516.8897897341599 322.1710464718977Q517.0586391547497 322.1710464718977 517.155124537944 323.11177895804104Q517.2274885753395 324.07663278998297 517.155124537944 325.2827000799104Q517.0586391547497 326.5128887156363 516.9621537715556 327.646591968168Q516.8897897341599 328.75617387490126 516.8897897341599 329.2868434824693L516.8897897341599 329.2868434824693Q516.5279695471818 332.4226184362805 516.2867560891962 334.59353955814987Q516.0214212854122 336.7644606800191 516.0214212854122 338.6700469981044ZM588.4337013726529 244.71740511276056L588.4337013726529 244.71740511276056Q585.49089718523 254.94485573134483 581.7520885864551 265.72709730329575Q578.0132799876801 276.4852175294481 574.0332579309197 286.03727046567303L574.0332579309197 286.03727046567303Q573.8402871645314 286.56794007324106 573.0684040989779 287.9428567837583Q572.2965210334244 289.3418948400741 571.7658514258562 289.17304541948425L571.7658514258562 289.17304541948425Q571.4281525846766 289.17304541948425 571.3316672014823 287.5086725593844Q571.2351818182882 285.8684210450832 571.4281525846766 285.0000525963355L571.4281525846766 285.0000525963355Q571.7658514258562 282.732646091272 572.4653704540142 279.45214306266945Q573.164889482172 276.1475186882684 573.9367725477256 272.67404489327754Q574.7086556132791 269.2005710982866 575.5046600246312 265.8959467238856Q576.2765430901848 262.5913223494845 577.1449115389324 260.15506642383116L577.1449115389324 260.15506642383116Q577.5067317259106 259.1178485544936 578.3751001746584 255.64437475950274Q579.2434686234061 252.17090096451187 580.2806864927436 247.32251045900375Q581.3179043620812 242.44999860769707 582.451607614613 236.90208907403104Q583.5853108671447 231.3300581945665 584.3571939326982 226.11984750208018Q585.1290769982518 220.90963680959385 585.49089718523 216.56779456585522Q585.8285960264097 212.22595232211663 585.3220477646402 209.98266716285167L585.3220477646402 209.98266716285167Q584.7913781570721 208.2459302653562 585.3220477646402 208.2459302653562L585.3220477646402 208.2459302653562Q585.6597466058198 208.2459302653562 585.9250814096039 208.68011448973007Q586.1904162133878 209.11429871410394 586.5281150545675 209.4519975552836L586.5281150545675 209.4519975552836Q588.264851952063 212.58777250909483 589.2297057840049 217.09846417342328Q590.1704382701482 221.6091558377517 590.339287690738 226.48166768905838Q590.5322584571265 231.3300581945665 590.0015888495584 236.2025700458732Q589.4709192419904 241.0509605513813 588.4337013726529 244.71740511276056ZM581.486753782671 204.57948570397696L581.486753782671 204.57948570397696Q583.7541602877345 213.45614095784256 582.6204570352028 223.17704331465734Q581.486753782671 232.89794567147212 578.7127990158381 242.9806682152651Q575.9388442490051 253.03926941325955 572.4653704540142 263.3873267608366Q568.9918966590233 273.7112627626151 566.55564073337 284.13168414758775L566.55564073337 284.13168414758775Q564.9877532564643 290.74093289638984 564.047020770321 297.76024452376726Q563.082166938379 304.80367749694324 563.082166938379 311.65413970373083Q563.082166938379 318.52872325631694 564.2158701909108 324.8485158555365Q565.3495734434425 331.1924298005546 568.1235282102755 336.2337910724511L568.1235282102755 336.2337910724511Q568.4612270514552 336.93331010060894 568.3888630140596 337.27100894178864Q568.2923776308653 337.6328291287669 567.2551597615278 336.2337910724511L567.2551597615278 336.2337910724511Q562.7444680971994 331.02358037996476 560.5735469753301 324.4143316311626Q558.4026258534608 317.8292042281591 558.0408056664826 310.5204364511991Q557.7031068253029 303.23579002003765 558.7403246946404 295.42047398130813Q559.7775425639779 287.6051579425786 561.6831288820633 280.1275407450288L561.6831288820633 280.1275407450288Q564.2882342283065 269.70711936005614 567.5204945653118 259.6485181620617Q570.7286335565187 249.56579561826868 573.5990737065458 240.01374268204376Q576.4453925107746 230.46168974581877 578.3751001746584 221.5126704545575Q580.2806864927436 212.58777250909483 580.2806864927436 204.24178686279728L580.2806864927436 204.24178686279728Q580.2806864927436 203.37341841404955 580.4495359133334 203.37341841404955L580.4495359133334 203.37341841404955Q581.1490549414914 203.37341841404955 581.486753782671 204.57948570397696ZM613.1098381245673 336.2337910724511L613.1098381245673 336.2337910724511Q606.669438796355 333.29098688502825 602.8582661601845 327.0194369774058Q599.0229721782154 320.7720084155819 598.1546037294677 312.61899353567276L598.1546037294677 312.61899353567276Q597.2862352807199 304.6348280763534 598.1546037294677 299.3281320006729Q599.0229721782154 294.0214359249924 600.2531608139413 288.81122523250605L600.2531608139413 288.81122523250605Q600.4220102345312 288.1358275501467 600.9526798420991 286.47145469004687Q601.4592281038687 284.83120317574566 601.7245629076527 283.0944662782502Q601.9898977114367 281.35772938075473 601.7245629076527 280.05517670763317Q601.4592281038687 278.7526240345116 600.2531608139413 278.39080384753333L600.2531608139413 278.39080384753333Q597.8169048882879 277.88425558576387 594.6811299344768 280.56172496940263Q591.569476326464 283.26331569884 588.6990361764368 287.26745910139897Q585.8285960264097 291.24748115815936 583.4888254839504 295.5169593645023Q581.1490549414914 299.76231622504673 580.4495359133334 302.19857215070004L580.4495359133334 302.19857215070004Q578.8816484364279 307.2399334225966 577.1449115389324 311.750625086925Q575.408174641437 316.26131675125345 574.0332579309197 320.7720084155819L574.0332579309197 320.7720084155819Q573.5025883233517 322.6775947336672 573.164889482172 322.5087453130774L573.164889482172 322.5087453130774Q572.8030692951938 322.5087453130774 572.7307052577981 321.8092262849195Q572.634219874604 321.13382860256013 572.634219874604 320.2654601538124L572.634219874604 320.2654601538124Q572.634219874604 313.31851256383067 573.6714377439415 306.2750795906547Q574.7086556132791 299.2316466174787 576.5418778939687 292.2846990274969Q578.3751001746584 285.3377514375151 580.6183853339234 278.39080384753333Q582.8857918389868 271.44385625755154 584.960227577662 264.32805924698L584.960227577662 264.32805924698Q587.7341823444949 255.47552533891292 590.2669236533425 246.26117124386764Q592.7755436163914 237.07093849462092 593.6439120651391 226.48166768905838L593.6439120651391 226.48166768905838Q593.6439120651391 225.61329924031065 593.6439120651391 225.51681385711646Q593.6439120651391 225.4203284739223 593.812761485729 225.4203284739223L593.812761485729 225.4203284739223Q594.3434310932971 225.4203284739223 594.6811299344768 226.81936653023806L594.6811299344768 226.81936653023806Q595.5494983832244 229.08677303530155 595.4771343458287 233.16328047525616Q595.3806489626346 237.23978791521074 594.7776153176709 242.11229976651737Q594.1745816727073 246.9606902720255 593.0408784201754 252.002051543922Q591.9071751676437 257.0434128158185 590.7011078777164 261.0234348725789L590.7011078777164 261.0234348725789Q594.0057322521175 257.549961077588 598.5164239164458 255.64437475950274Q603.0271155807743 253.73878844141746 609.2745441425982 254.6071568901652L609.2745441425982 254.6071568901652Q616.3903411531697 255.64437475950274 620.2256351351389 259.7208821994573Q624.0368077713094 263.82151098521047 625.4358458276253 269.53826993946626Q626.8107625381425 275.2791502395207 626.2077288931788 281.7919136051286Q625.6046952482151 288.3046769707365 624.0368077713094 294.3832561119706L624.0368077713094 294.3832561119706Q622.6618910607922 299.0627971968889 621.4317024250663 302.63275637507394Q620.2256351351389 306.1785942074605 618.995446499413 309.14551974068183Q617.7893792094856 312.08832392810467 616.9210107607379 314.69342927434786Q616.0526423119901 317.29853462059106 615.5219727044221 320.2654601538124L615.5219727044221 320.2654601538124Q615.1842738632424 322.1710464718977 614.8465750220627 322.1710464718977L614.8465750220627 322.1710464718977Q614.4847548350845 322.1710464718977 614.2194200313005 321.47152744373983Q613.978206573315 320.7720084155819 613.7852358069266 320.072489387424L613.7852358069266 320.072489387424Q612.7480179375891 316.26131675125345 613.712871769531 310.7134072175875Q614.6536042556744 305.14137633812294 616.2214917325799 298.9904331594932Q617.7893792094856 292.815368635065 619.0919318826071 286.47145469004687Q620.3944845557287 280.1275407450288 620.1291497519447 274.74848063195265Q619.8638149481607 269.36942051887644 617.2587096019175 265.29291307892186Q614.6536042556744 261.2164056389673 608.4061756938504 259.6485181620617L608.4061756938504 259.6485181620617Q605.8010703476073 258.9489991339038 602.7617807769902 259.2143339376878Q599.7224912063732 259.4796687414718 597.0450218227344 260.58925064820505Q594.3434310932971 261.7229539007368 592.2689953546219 263.82151098521047Q590.1704382701482 265.8959467238856 589.4709192419904 268.6699014907186L589.4709192419904 268.6699014907186Q592.7755436163914 265.19642769572766 597.9857543088777 262.95314253646274Q603.1959650013641 260.68573603139924 608.0684768526708 262.2536235083048L608.0684768526708 262.2536235083048Q612.5791685169992 263.6285402188221 614.4847548350845 267.29498478020133Q616.3903411531697 270.9373079957821 616.7521613401481 273.7112627626151L616.7521613401481 273.7112627626151Q617.4516803683059 279.7898419038491 615.956156928796 284.7347177925514Q614.4847548350845 289.6795936812537 612.5791685169992 294.21440669138076L612.5791685169992 294.21440669138076Q612.2414696758195 294.7209549531502 611.5419506476617 295.85465820568203Q610.8424316195038 296.9883614582138 610.5047327783241 296.8195120376239L610.5047327783241 296.8195120376239Q610.1429125913459 296.8195120376239 610.1429125913459 295.42047398130813Q610.1429125913459 294.0214359249924 610.3117620119357 293.346038242633L610.3117620119357 293.346038242633Q610.8424316195038 291.60930134513757 611.1801304606835 287.8704927463627Q611.5419506476617 284.13168414758775 611.4454652644674 280.1275407450288Q611.3731012270719 276.1475186882684 610.4082473951299 272.67404489327754Q609.443393563188 269.2005710982866 607.3689578245129 267.9703824625607L607.3689578245129 267.9703824625607Q604.9327018988596 266.5954657520435 601.4592281038687 267.19849939700714Q597.9857543088777 267.80153304197086 594.0057322521175 271.44385625755154L594.0057322521175 271.44385625755154Q590.5322584571265 274.5796312113628 588.0960025314732 278.65613865131735Q585.6597466058198 282.732646091272 583.9230097083243 289.3418948400741L583.9230097083243 289.3418948400741Q584.960227577662 287.4363085219888 587.2276340827254 283.9628347269979Q589.4709192419904 280.489360932007 592.3413593920176 277.3535859781958Q595.2117995420448 274.2419323701831 598.4199385332516 272.40871008949347Q601.6280775244585 270.57548780880387 604.5950030576798 271.97452586511963L604.5950030576798 271.97452586511963Q606.5005893757651 273.0117437344572 607.1036230207288 275.5444850433047Q607.7066566656925 278.0531050063537 607.465443207707 281.1888799601649Q607.2001084039231 284.30053356817757 606.5005893757651 287.26745910139897Q605.8010703476073 290.2102632888218 605.2945220858378 291.9470001863172L605.2945220858378 291.9470001863172Q603.364814421954 297.1572108788036 602.6894167395945 303.33227540323185Q601.9898977114367 309.48321858186154 602.7617807769902 315.3929483025058Q603.5577851883423 321.30267802314995 606.1628905345855 326.5128887156363Q608.7679958808286 331.72309940812266 613.7852358069266 335.3654226237034L613.7852358069266 335.3654226237034Q615.3531232838322 336.2337910724511 614.4123907976889 336.2337910724511Q613.447536965747 336.2337910724511 613.1098381245673 336.2337910724511ZM617.6205297888957 334.8347530161353L617.6205297888957 334.8347530161353Q615.1842738632424 333.4598363056181 613.0133527413731 331.8919488287125Q610.8424316195038 330.32406135180685 608.7679958808286 325.8133696874784L608.7679958808286 325.8133696874784Q607.8996274320809 324.07663278998297 607.465443207707 321.13382860256013Q607.0312589833333 318.16690306933873 606.934773600139 315.4894336856999Q606.8382882169449 312.7878429562626 607.2001084039231 310.9546206755729Q607.5378072451027 309.14551974068183 608.0684768526708 309.3143691612717L608.0684768526708 309.3143691612717Q608.4061756938504 309.3143691612717 608.7679958808286 310.0862522268252Q609.1056947220084 310.8822566381773 609.2745441425982 311.91947450751485Q609.443393563188 312.9566923768524 609.6363643295764 313.9215462087943Q609.8052137501662 314.8622786949377 609.8052137501662 315.22409888191595L609.8052137501662 315.22409888191595Q610.5047327783241 319.03527151808646 611.0112810400936 320.8684937987761Q611.5419506476617 322.6775947336672 612.4103190964094 324.7761518181409L612.4103190964094 324.7761518181409Q613.7852358069266 327.5501065849739 615.1842738632424 329.8175130900374Q616.5833119195581 332.0607982493023 618.6577476582332 333.9663845673876L618.6577476582332 333.9663845673876Q619.526116106981 334.66590359554544 619.0919318826071 335.0277237825237Q618.6577476582332 335.3654226237034 617.6205297888957 334.8347530161353ZM573.6714377439415 336.2337910724511L573.6714377439415 336.2337910724511Q573.8402871645314 336.2337910724511 573.4061029401576 336.4026404930409Q572.9719187157837 336.5714899136307 571.7658514258562 336.2337910724511L571.7658514258562 336.2337910724511Q570.3668133695405 335.53427204429323 568.895411275829 333.62868572620795Q567.4240091821176 331.72309940812266 566.55564073337 326.1510685286581L566.55564073337 326.1510685286581Q566.2179418921903 323.90778336939314 566.2179418921903 320.6996443781863Q566.2179418921903 317.4673840411809 566.4591553501757 314.62106523695223Q566.7244901539598 311.750625086925 567.2551597615278 309.65206800245136Q567.7617080232974 307.57763226377625 568.4612270514552 307.7464816843661L568.4612270514552 307.7464816843661Q568.6300764720451 307.7464816843661 568.8230472384334 308.7836995537036Q568.9918966590233 309.84503876883974 569.1607460796131 311.1475914419613Q569.3295955002029 312.4501441150829 569.3295955002029 313.7526967882045Q569.3295955002029 315.05524946132607 569.3295955002029 315.5617977230956L569.3295955002029 315.5617977230956Q569.4984449207927 319.39709170506467 569.7637797245768 321.20619263995576Q570.0291145283609 323.0394149206454 570.5597841359289 326.1510685286581L570.5597841359289 326.1510685286581Q571.0663323976984 329.4556929030592 571.7658514258562 332.1572836324965Q572.4653704540142 334.8347530161353 573.6714377439415 336.2337910724511Z " fill="#333333" transform="matrix(1.3968897658606676,0,0,1.3968897658606676,0,-88.85696970656285)"/></g></svg>